<svg xmlns="http://www.w3.org/2000/svg" width="64.5" height="64.5" viewBox="0 0 64.5 64.5">
  <g id="Icon_CTA_5" data-name="Icon CTA 5" transform="translate(-647 -5181)">
    <path id="Rectangle_1878" data-name="Rectangle 1878" d="M3.225,2.58a.646.646,0,0,0-.645.645v58.05a.646.646,0,0,0,.645.645h58.05a.646.646,0,0,0,.645-.645V3.225M3.225,0h58.05A3.225,3.225,0,0,1,64.5,3.225v58.05A3.225,3.225,0,0,1,61.275,64.5H3.225A3.225,3.225,0,0,1,0,61.275V3.225A3.225,3.225,0,0,1,3.225,0Z" transform="translate(647 5181)" fill="#00cb98"/>
    <path id="boxes-stacked-regular" d="M20.561,2.57a.859.859,0,0,1,.857.857v6.854h2.57V3.427A3.43,3.43,0,0,0,20.561,0H10.281A3.43,3.43,0,0,0,6.854,3.427v6.854h2.57V3.427a.859.859,0,0,1,.857-.857h3V6a.859.859,0,0,0,.857.857h2.57A.859.859,0,0,0,17.563,6V2.57Zm-3.02,24.845h9.874a3.43,3.43,0,0,0,3.427-3.427V15.421a3.43,3.43,0,0,0-3.427-3.427H17.541a5.1,5.1,0,0,1,1.237,2.57h1.355v3.427a.859.859,0,0,0,.857.857h2.57a.859.859,0,0,0,.857-.857V14.564h3a.859.859,0,0,1,.857.857v8.567a.859.859,0,0,1-.857.857H18.778A5.139,5.139,0,0,1,17.541,27.415ZM13.707,14.564a.859.859,0,0,1,.857.857v8.567a.859.859,0,0,1-.857.857H3.427a.859.859,0,0,1-.857-.857V15.421a.859.859,0,0,1,.857-.857h3v3.427a.859.859,0,0,0,.857.857h2.57a.859.859,0,0,0,.857-.857V14.564ZM3.427,11.994A3.43,3.43,0,0,0,0,15.421v8.567a3.43,3.43,0,0,0,3.427,3.427H13.707a3.43,3.43,0,0,0,3.427-3.427V15.421a3.43,3.43,0,0,0-3.427-3.427Z" transform="translate(663.829 5199.542)" fill="#00cb98"/>
  </g>
</svg>
