<svg xmlns="http://www.w3.org/2000/svg" width="70" height="70" viewBox="0 0 70 70">
  <g id="Icon_Full_Width_Section" data-name="Icon Full Width Section" transform="translate(-1275 -4361)">
    <g id="Path_25383" data-name="Path 25383" transform="translate(1275 4361)" fill="none">
      <path d="M5,0H65a5,5,0,0,1,5,5V65a5,5,0,0,1-5,5H5a5,5,0,0,1-5-5V5A5,5,0,0,1,5,0Z" stroke="none"/>
      <path d="M 5 3 C 3.897201538085938 3 3 3.897201538085938 3 5 L 3 65 C 3 66.10279846191406 3.897201538085938 67 5 67 L 65 67 C 66.10279846191406 67 67 66.10279846191406 67 65 L 67 5 C 67 3.897201538085938 66.10279846191406 3 65 3 L 5 3 M 5 0 L 65 0 C 67.76142120361328 0 70 2.238578796386719 70 5 L 70 65 C 70 67.76142120361328 67.76142120361328 70 65 70 L 5 70 C 2.238578796386719 70 0 67.76142120361328 0 65 L 0 5 C 0 2.238578796386719 2.238578796386719 0 5 0 Z" stroke="none" fill="#00caec"/>
    </g>
    <path id="users-regular" d="M9.042,10.046A5.023,5.023,0,1,0,4.019,5.023,5.023,5.023,0,0,0,9.042,10.046Zm23.107,0a5.023,5.023,0,1,0-5.023-5.023A5.023,5.023,0,0,0,32.149,10.046ZM0,18.756a1.343,1.343,0,0,0,1.337,1.337H14.775a8.018,8.018,0,0,1-2.719-6.028,8.6,8.6,0,0,1,.119-1.4,6.639,6.639,0,0,0-2.8-.609H6.693A6.7,6.7,0,0,0,0,18.756Zm25.449,1.337H38.842a1.339,1.339,0,0,0,1.337-1.337,6.693,6.693,0,0,0-6.693-6.7H30.805a6.735,6.735,0,0,0-2.8.609,7.9,7.9,0,0,1,.119,1.4,8.04,8.04,0,0,1-2.719,6.028Zm-5.356-9.042a3.014,3.014,0,1,1-3.014,3.014,3.014,3.014,0,0,1,3.014-3.014Zm0,9.042a6.028,6.028,0,1,0-6.028-6.028A6.028,6.028,0,0,0,20.093,20.093Zm-3.686,5.023h7.365a5.351,5.351,0,0,1,5.186,4.019H11.214A5.362,5.362,0,0,1,16.4,25.116Zm0-3.014a8.372,8.372,0,0,0-8.37,8.37,1.676,1.676,0,0,0,1.677,1.677H30.479a1.676,1.676,0,0,0,1.677-1.677,8.381,8.381,0,0,0-8.376-8.37H16.407Z" transform="translate(1289.91 4379.925)" fill="#00cbec"/>
  </g>
</svg>
