<svg id="Icon_Three" data-name="Icon Three" xmlns="http://www.w3.org/2000/svg" xmlns:xlink="http://www.w3.org/1999/xlink" width="78" height="78" viewBox="0 0 78 78">
  <defs>
    <linearGradient id="linear-gradient" x1="-1.455" y1="0.5" x2="1.993" y2="0.5" gradientUnits="objectBoundingBox">
      <stop offset="0" stop-color="#30cb98"/>
      <stop offset="0.049" stop-color="#30cb98"/>
      <stop offset="0.493" stop-color="#3bcbec"/>
      <stop offset="0.946" stop-color="#a27be5"/>
      <stop offset="1" stop-color="#a27be5"/>
    </linearGradient>
  </defs>
  <rect id="Rectangle_1785" data-name="Rectangle 1785" width="78" height="78" rx="5" fill="url(#linear-gradient)"/>
  <path id="stopwatch-regular" d="M26.316,1.934A1.93,1.93,0,0,1,28.251,0h9.027a1.934,1.934,0,0,1,0,3.869H34.7V7.85a16.636,16.636,0,0,1,9.172,4.1l2.353-2.362a1.932,1.932,0,0,1,2.732,2.732l-2.5,2.5A16.769,16.769,0,1,1,30.83,7.85V3.869H28.251A1.93,1.93,0,0,1,26.316,1.934ZM32.764,37.4a12.9,12.9,0,1,0-12.9-12.9A12.9,12.9,0,0,0,32.764,37.4ZM34.7,17.409v8.382a1.934,1.934,0,0,1-3.869,0V17.409a1.934,1.934,0,0,1,3.869,0Z" transform="translate(6.236 18.371)" fill="#062c34"/>
</svg>
