<svg xmlns="http://www.w3.org/2000/svg" width="64.5" height="64.5" viewBox="0 0 64.5 64.5">
  <g id="Icon_CTA_6" data-name="Icon CTA 6" transform="translate(-287 -5173)">
    <path id="Rectangle_1878" data-name="Rectangle 1878" d="M3.225,2.58a.646.646,0,0,0-.645.645v58.05a.646.646,0,0,0,.645.645h58.05a.646.646,0,0,0,.645-.645V3.225a.646.646,0,0,0-.645-.645H3.225m0-2.58h58.05A3.225,3.225,0,0,1,64.5,3.225v58.05A3.225,3.225,0,0,1,61.275,64.5H3.225A3.225,3.225,0,0,1,0,61.275V3.225A3.225,3.225,0,0,1,3.225,0Z" transform="translate(287 5173)" fill="#00cb98"/>
    <path id="sliders-regular" d="M0,36.794a1.245,1.245,0,0,0,1.248,1.248h3.1a4.158,4.158,0,0,0,7.933,0H25.368a1.248,1.248,0,1,0,0-2.5H12.284a4.158,4.158,0,0,0-7.933,0h-3.1A1.245,1.245,0,0,0,0,36.794Zm6.654,0a1.663,1.663,0,1,1,1.663,1.663A1.663,1.663,0,0,1,6.654,36.794Zm9.981-8.317A1.663,1.663,0,1,1,18.3,30.14,1.663,1.663,0,0,1,16.635,28.476ZM18.3,24.317a4.157,4.157,0,0,0-3.966,2.911H1.248a1.248,1.248,0,0,0,0,2.5H14.332a4.158,4.158,0,0,0,7.933,0h3.1a1.248,1.248,0,1,0,0-2.5h-3.1A4.157,4.157,0,0,0,18.3,24.317Zm-8.317-2.5a1.663,1.663,0,1,1,1.663-1.663A1.663,1.663,0,0,1,9.981,21.822Zm3.966-2.911a4.158,4.158,0,0,0-7.933,0H1.248a1.248,1.248,0,1,0,0,2.5H6.015a4.158,4.158,0,0,0,7.933,0H25.368a1.248,1.248,0,1,0,0-2.5Z" transform="translate(305.942 5176.774)" fill="#00cb98"/>
  </g>
</svg>
