<svg id="Icon_Four" data-name="Icon Four" xmlns="http://www.w3.org/2000/svg" xmlns:xlink="http://www.w3.org/1999/xlink" width="78" height="78" viewBox="0 0 78 78">
  <defs>
    <linearGradient id="linear-gradient" x1="-3.388" y1="0.472" x2="1.14" y2="0.5" gradientUnits="objectBoundingBox">
      <stop offset="0" stop-color="#30cb98"/>
      <stop offset="0.049" stop-color="#30cb98"/>
      <stop offset="0.493" stop-color="#3bcbec"/>
      <stop offset="0.946" stop-color="#a27be5"/>
      <stop offset="1" stop-color="#a27be5"/>
    </linearGradient>
  </defs>
  <path id="Path_25377" data-name="Path 25377" d="M5,0H73a5,5,0,0,1,5,5V73a5,5,0,0,1-5,5H5a5,5,0,0,1-5-5V5A5,5,0,0,1,5,0Z" fill="url(#linear-gradient)"/>
  <path id="boxes-stacked-regular" d="M32.034,4a1.339,1.339,0,0,1,1.335,1.335V16.017h4V5.339A5.344,5.344,0,0,0,32.034,0H16.017a5.344,5.344,0,0,0-5.339,5.339V16.017h4V5.339A1.339,1.339,0,0,1,16.017,4h4.672V9.343a1.339,1.339,0,0,0,1.335,1.335h4a1.339,1.339,0,0,0,1.335-1.335V4ZM27.329,42.712H42.712a5.344,5.344,0,0,0,5.339-5.339V24.026a5.344,5.344,0,0,0-5.339-5.339H27.329a7.939,7.939,0,0,1,1.927,4h2.111V28.03A1.339,1.339,0,0,0,32.7,29.365h4a1.339,1.339,0,0,0,1.335-1.335V22.691h4.672a1.339,1.339,0,0,1,1.335,1.335V37.373a1.339,1.339,0,0,1-1.335,1.335H29.256A8.007,8.007,0,0,1,27.329,42.712ZM21.356,22.691a1.339,1.339,0,0,1,1.335,1.335V37.373a1.339,1.339,0,0,1-1.335,1.335H5.339A1.339,1.339,0,0,1,4,37.373V24.026a1.339,1.339,0,0,1,1.335-1.335h4.672V28.03a1.339,1.339,0,0,0,1.335,1.335h4a1.339,1.339,0,0,0,1.335-1.335V22.691Zm-16.017-4A5.344,5.344,0,0,0,0,24.026V37.373a5.344,5.344,0,0,0,5.339,5.339H21.356A5.344,5.344,0,0,0,26.7,37.373V24.026a5.344,5.344,0,0,0-5.339-5.339Z" transform="translate(14.974 17.644)" fill="#02252c"/>
</svg>
