<svg id="Laser_Red" data-name="Laser Red" xmlns="http://www.w3.org/2000/svg" width="96.894" height="15.293" viewBox="0 0 96.894 15.293">
  <path id="Path_238" data-name="Path 238" d="M152.69,328.124h1.678v8.263h3.744v1.678H152.69Z" transform="translate(-129.952 -325.452)" fill="#dadae2"/>
  <path id="Path_239" data-name="Path 239" d="M179.438,337.31h1.9l-4.519-10.328L172.3,337.31h1.9l2.621-6.235Z" transform="translate(-142.913 -324.698)" fill="#dadae2"/>
  <path id="Path_240" data-name="Path 240" d="M203.165,337.3A3.168,3.168,0,0,1,202,335.657l1.523-.684a1.839,1.839,0,0,0,.588.955,1.551,1.551,0,0,0,1.026.349,1.508,1.508,0,0,0,1.065-.4,1.3,1.3,0,0,0,.433-.994,1.117,1.117,0,0,0-.213-.71,1.541,1.541,0,0,0-.542-.433q-.329-.161-1.129-.471a4.451,4.451,0,0,1-1.859-1.168,2.611,2.611,0,0,1-.568-1.737,2.557,2.557,0,0,1,1.349-2.278,2.973,2.973,0,0,1,3.06.174,2.607,2.607,0,0,1,1,1.343l-1.511.7a1.147,1.147,0,0,0-.413-.652,1.192,1.192,0,0,0-.749-.239,1.11,1.11,0,0,0-.768.271.877.877,0,0,0-.3.684,1.036,1.036,0,0,0,.278.768,3.3,3.3,0,0,0,1.091.588.536.536,0,0,0,.136.058.671.671,0,0,1,.123.045,10.668,10.668,0,0,1,1.342.613,2.818,2.818,0,0,1,.949.9,2.7,2.7,0,0,1,.407,1.543,2.958,2.958,0,0,1-.42,1.543,3.03,3.03,0,0,1-1.149,1.11,3.242,3.242,0,0,1-1.607.407A3.209,3.209,0,0,1,203.165,337.3Z" transform="translate(-162.542 -325.201)" fill="#dadae2"/>
  <path id="Path_241" data-name="Path 241" d="M259.135,338.065l-2.04-3.68H255.61v3.68h-1.678v-9.941h3.705a3.059,3.059,0,0,1,1.562.42,3.111,3.111,0,0,1,1.142,1.136,3.139,3.139,0,0,1-1.543,4.487l2.272,3.9Zm-3.525-5.358h2.027a1.385,1.385,0,0,0,1.026-.426,1.416,1.416,0,0,0,.419-1.033,1.432,1.432,0,0,0-1.446-1.446H255.61Z" transform="translate(-196.866 -325.452)" fill="#dadae2"/>
  <path id="Path_242" data-name="Path 242" d="M299.99,338.065l-2.04-3.68h-1.484v3.68h-1.678v-9.941h3.705a3.06,3.06,0,0,1,1.562.42,3.114,3.114,0,0,1,1.142,1.136,3.139,3.139,0,0,1-1.543,4.487l2.272,3.9Zm-3.525-5.358h2.027a1.386,1.386,0,0,0,1.026-.426,1.416,1.416,0,0,0,.419-1.033,1.432,1.432,0,0,0-1.446-1.446h-2.027Z" transform="translate(-223.868 -325.452)" fill="#dadae2"/>
  <path id="Path_243" data-name="Path 243" d="M227.85,328.136h6.2v1.678h-4.519v2.453H233l-.662,1.679h-2.811V336.4h4.519v1.678h-6.2Z" transform="translate(-179.628 -325.461)" fill="#dadae2"/>
  <path id="Path_244" data-name="Path 244" d="M322.125,328.124h6.2V329.8H323.8v2.453h3.473l-.661,1.679H323.8v2.453h4.519v1.678h-6.2Z" transform="translate(-241.936 -325.452)" fill="#dadae2"/>
  <path id="Path_245" data-name="Path 245" d="M348.206,328.124H351.1a4.971,4.971,0,1,1,0,9.941h-2.892Zm2.892,8.263a3.292,3.292,0,1,0,0-6.585h-1.214v6.585Z" transform="translate(-259.174 -325.452)" fill="#dadae2"/>
  <path id="Path_246" data-name="Path 246" d="M93.282,320.244l-7.646,15.293H92l-.922-1.844-2.519,0,4.72-9.441,1.229,2.458-2.231,4.463,2.181,4.362h2.006l-2.181-4.362,2.232-4.463Z" transform="translate(-85.635 -320.244)" fill="#dadae2"/>
  <path id="Path_247" data-name="Path 247" d="M119.394,346.568l-1,2.005,2.181,4.362h2.005Z" transform="translate(-107.284 -337.642)" fill="#dadae2"/>
</svg>
