<svg xmlns="http://www.w3.org/2000/svg" width="13.98" height="14" viewBox="0 0 13.98 14">
  <path id="Search_Icon_Dark_" data-name="Search Icon (Dark)" d="M13.82,12.487a.711.711,0,0,0-.178-.189l-2.81-2.821a5.909,5.909,0,0,0,1.111-3.943A5.865,5.865,0,0,0,9.888,1.457,5.971,5.971,0,0,0,0,6.422,5.9,5.9,0,0,0,2.079,10.51a5.932,5.932,0,0,0,7.4.322L12.221,13.6a.933.933,0,0,0,.622.389H13a.922.922,0,0,0,.555-.178.933.933,0,0,0,.389-.622.955.955,0,0,0-.122-.7ZM6.011,10A3.977,3.977,0,0,1,3.179,8.821,4.029,4.029,0,1,1,6.011,10Z" transform="translate(0.018 0.014)" fill="#11111f"/>
</svg>
